# xmcd
#
# Track frame offsets: 
#        150
#        21859
#        41758
#        69851
#        91219
#        106275
#        121746
#        131544
#        162856
#        187428
#        205699
#        223599
#        244406
#
# Disc length: 3538 seconds
#
# Revision: 0
# Processed by: cddbd v1.5.2PL0 Copyright (c) Steve Scherf et al.
# Submitted via: ExactAudioCopy v1.0b1
#
DISCID=b60dd00d
DTITLE=Blueish - Blueish
DYEAR=2001
DGENRE=Blues
TTITLE0=You Don't Have To Go
TTITLE1=Think Twice Before You Go
TTITLE2=Love is a Fool's Game
TTITLE3=The Hook
TTITLE4=Chicago Shuffle
TTITLE5=Can't Sleep at Night
TTITLE6=She's a Murder
TTITLE7=Too Late
TTITLE8=Drug Store Woman
TTITLE9=Everyday I Have the Blues
TTITLE10=Put Your Heart in America
TTITLE11=Chittlin's Con Carne
TTITLE12=Jimmy Jazz
EXTD=
EXTT0=
EXTT1=
EXTT2=
EXTT3=
EXTT4=
EXTT5=
EXTT6=
EXTT7=
EXTT8=
EXTT9=
EXTT10=
EXTT11=
EXTT12=
PLAYORDER=
